<svg width="164" height="40" fill="none" xmlns="http://www.w3.org/2000/svg"><path d="M1.88.537h15.71c.788 0 1.674.009 2.659.026a49 49 0 013.142.162c1.092.071 2.202.188 3.33.349 1.146.143 2.256.349 3.33.617a18.49 18.49 0 013.008.967c.949.376 1.773.833 2.47 1.37a6.11 6.11 0 011.693 1.907c.411.716.617 1.54.617 2.47 0 1.271-.349 2.408-1.047 3.41-.698 1.004-1.638 1.88-2.82 2.633-1.164.734-2.515 1.36-4.055 1.88-1.54.5-3.151.886-4.834 1.154 1.79.287 3.366.645 4.727 1.075 1.36.43 2.542.913 3.545 1.45 1.02.519 1.87 1.065 2.55 1.638.699.573 1.272 1.137 1.72 1.692 1.056 1.307 1.656 2.694 1.799 4.163 0 1.629-.296 3.034-.886 4.216a8.975 8.975 0 01-2.337 3.008c-.967.805-2.086 1.459-3.357 1.96a24.264 24.264 0 01-3.974 1.182 32.67 32.67 0 01-4.163.537c-1.396.09-2.703.134-3.92.134h-1.64c-.5.018-1.064.018-1.69 0-.628 0-1.38-.009-2.257-.027-.86-.018-1.942-.053-3.25-.107a160.778 160.778 0 01-4.699-.215c-1.826-.09-4.037-.206-6.633-.35l.107-.617h7.412V1.531H1.88V.536zm15.952 17.456l-.295 19.524c.465.035.966.053 1.504.053h1.745c1.45-.107 2.721-.358 3.814-.752 1.11-.393 2.032-.975 2.766-1.745.752-.788 1.325-1.79 1.718-3.008.412-1.235.654-2.74.726-4.512 0-1.7-.188-3.15-.564-4.35-.358-1.218-.994-2.212-1.907-2.981-.913-.77-2.14-1.334-3.68-1.692-1.539-.358-3.482-.537-5.827-.537zm10.715-9.131c-.018.018-.027-.143-.027-.484a8.37 8.37 0 00-.134-1.342 9.572 9.572 0 00-.483-1.746 5.424 5.424 0 00-1.074-1.746c-.466-.555-1.084-1.011-1.853-1.37-.77-.357-1.728-.536-2.874-.536-.77 0-1.504-.018-2.202-.054a35.538 35.538 0 00-1.853-.054l-.215 15.362a19.938 19.938 0 012.068.107 15.03 15.03 0 003.008-.295 6.695 6.695 0 002.658-1.155c.806-.573 1.469-1.388 1.988-2.444.537-1.074.868-2.489.993-4.243zM41.948 37.57h4.136l.725-34.724-4.726-.107v-.994l12.756.242-.779 35.583h5.452v.967H41.948v-.967zm41.009-13.05c0 .948-.305 1.808-.913 2.578-.61.752-1.397 1.396-2.364 1.933-.949.537-2.014.967-3.196 1.29a14.46 14.46 0 01-3.437.483c-.072 0-.233-.01-.483-.027a5.477 5.477 0 01-.914-.161 8.453 8.453 0 01-1.208-.484 5.564 5.564 0 01-1.343-.94c.054 1.594.197 2.963.43 4.11.25 1.127.573 2.058.967 2.792.411.716.886 1.245 1.423 1.585a3.522 3.522 0 001.8.483c.375 0 .877-.125 1.503-.376.645-.25 1.307-.635 1.988-1.155.698-.519 1.378-1.181 2.04-1.987.663-.806 1.218-1.772 1.665-2.9l.78-1.988.966.323-.43 1.208a14.103 14.103 0 01-1.557 3.008 13.32 13.32 0 01-2.256 2.551 10.71 10.71 0 01-2.82 1.773 9.47 9.47 0 01-3.33.805c-2.059-.071-3.805-.438-5.237-1.1-1.432-.663-2.596-1.505-3.491-2.525a9.743 9.743 0 01-1.96-3.41 12.563 12.563 0 01-.591-3.787c0-.842.125-1.755.376-2.74a15.963 15.963 0 011.154-3.008 18.285 18.285 0 011.827-2.954 15 15 0 012.47-2.524 11.937 11.937 0 013.035-1.746 9.46 9.46 0 013.572-.671c1.164.036 2.202.215 3.115.537.931.305 1.746.716 2.444 1.236a8.378 8.378 0 011.826 1.718 10.35 10.35 0 011.235 2.014c.323.68.555 1.379.699 2.095.143.698.215 1.352.215 1.96zm-9.964-8.567c-.573.036-1.11.358-1.611.967-.484.608-.904 1.44-1.262 2.497-.34 1.038-.61 2.265-.806 3.68a33.153 33.153 0 00-.295 4.565c.447.519.895.922 1.342 1.208.448.287.86.501 1.236.645a5.534 5.534 0 001.396.295c.698-.018 1.271-.17 1.719-.457a2.86 2.86 0 001.074-1.181c.269-.501.457-1.101.564-1.8a15.45 15.45 0 00.161-2.336c0-1.074-.071-2.095-.215-3.061-.125-.985-.33-1.844-.617-2.579-.269-.751-.627-1.342-1.075-1.772a2.198 2.198 0 00-1.61-.671zM95.82 38.994c-1.092 0-2.148-.144-3.169-.43a10.792 10.792 0 01-2.793-1.155 9.136 9.136 0 01-2.121-1.826 5.83 5.83 0 01-1.155-2.363c0-.502.072-.967.215-1.397.161-.43.376-.805.644-1.128.287-.322.618-.573.994-.752a2.566 2.566 0 011.209-.295c.519 0 1.029.152 1.53.457.502.304.931.77 1.29 1.396.286.52.492 1.038.617 1.558.143.519.25 1.02.322 1.504.09.483.161.94.215 1.37.072.41.18.769.322 1.073.162.305.385.546.672.725.286.18.69.269 1.208.269.842 0 1.567-.08 2.176-.242.608-.16 1.11-.385 1.504-.671.393-.287.68-.609.859-.967.197-.358.295-.743.295-1.155 0-.465-.125-.94-.376-1.423-.25-.483-.617-.931-1.1-1.343-.484-.43-1.093-.814-1.827-1.155-.716-.34-1.558-.59-2.524-.752a15.36 15.36 0 01-3.035-.805 8.14 8.14 0 01-2.39-1.423 6.615 6.615 0 01-1.612-2.203c-.375-.877-.563-1.924-.563-3.142 0-1.217.268-2.291.805-3.222a8.005 8.005 0 012.122-2.39 9.647 9.647 0 012.9-1.478 10.54 10.54 0 013.196-.51c.448 0 .967.036 1.558.108.59.053 1.19.16 1.799.322a12.01 12.01 0 011.853.644 6.154 6.154 0 011.611 1.02 4.64 4.64 0 011.155 1.478c.287.573.43 1.235.43 1.987 0 .43-.081.833-.242 1.209a2.988 2.988 0 01-.618.993c-.25.269-.555.484-.913.645a2.48 2.48 0 01-1.074.242c-.859 0-1.513-.188-1.96-.564a3.258 3.258 0 01-.94-1.424 8.483 8.483 0 01-.403-1.826 13.98 13.98 0 00-.269-1.853c-.125-.573-.33-1.047-.617-1.423-.269-.376-.726-.564-1.37-.564-1.217.09-2.175.385-2.874.886-.68.483-1.02 1.137-1.02 1.96 0 .538.116 1.066.35 1.585.232.501.563.967.993 1.396.447.43.984.806 1.611 1.128.627.305 1.325.52 2.095.645a14.31 14.31 0 013.034.86 9.688 9.688 0 012.552 1.503 6.784 6.784 0 011.772 2.149c.448.805.672 1.7.672 2.685 0 .985-.26 1.96-.779 2.927a8.937 8.937 0 01-2.068 2.605c-.877.752-1.898 1.361-3.062 1.827a9.565 9.565 0 01-3.706.725zm12.918-21.673l2.658-.053c.09-1.379.188-2.883.296-4.512.107-1.647.259-3.482.456-5.506h8.54l-.886 9.803 4.781-.108v.967l-4.888.134c-.251 2.65-.519 5.318-.806 8.003a83.273 83.273 0 00-.403 8.272c0 1.378.099 2.426.296 3.142.215.716.573 1.119 1.074 1.208h.269c.877-.107 1.665-.519 2.363-1.235.286-.304.573-.69.859-1.155.287-.483.537-1.065.752-1.745a15.3 15.3 0 00.51-2.444c.126-.95.188-2.041.188-3.277h.994c0 1.361-.081 2.56-.242 3.6-.143 1.02-.349 1.915-.617 2.685-.269.752-.573 1.387-.913 1.906-.341.52-.69.95-1.048 1.29-.841.787-1.79 1.235-2.846 1.342-1.325 0-2.48-.143-3.465-.43-.967-.268-1.799-.653-2.497-1.154a6.687 6.687 0 01-1.692-1.719 9.5 9.5 0 01-1.021-2.202 13.645 13.645 0 01-.483-2.498 26.037 26.037 0 01-.134-2.658c0-1.666.053-3.357.161-5.076l.349-5.64-2.605.054v-.994zm19.604-.268l11.951-.35-.403 20.357h4.512v.994h-16.704v-.994h4.458l.161-19.148-3.975.134v-.993zm12.542-7.17a5.18 5.18 0 01-.564 1.987 5.6 5.6 0 01-1.209 1.611 5.609 5.609 0 01-1.718 1.047 4.817 4.817 0 01-2.015.323 4.704 4.704 0 01-2.014-.484 5.124 5.124 0 01-1.557-1.182 5.08 5.08 0 01-.967-1.718 5.255 5.255 0 01-.242-2.068 4.655 4.655 0 01.537-1.96 5.512 5.512 0 011.209-1.558 5.212 5.212 0 011.718-1.02 5.067 5.067 0 011.988-.35 4.647 4.647 0 011.987.484 4.783 4.783 0 011.558 1.154c.447.484.779 1.048.993 1.692a5.18 5.18 0 01.296 2.041zm5.398 7.438l2.658-.053c.09-1.379.188-2.883.296-4.512.107-1.647.259-3.482.456-5.506h8.54l-.886 9.803 4.78-.108v.967l-4.887.134c-.251 2.65-.519 5.318-.806 8.003a83.273 83.273 0 00-.403 8.272c0 1.378.099 2.426.296 3.142.215.716.573 1.119 1.074 1.208h.268c.878-.107 1.665-.519 2.364-1.235.286-.304.573-.69.859-1.155.287-.483.537-1.065.752-1.745a15.3 15.3 0 00.51-2.444c.126-.95.188-2.041.188-3.277h.994c0 1.361-.081 2.56-.242 3.6-.143 1.02-.349 1.915-.617 2.685-.269.752-.573 1.387-.914 1.906-.34.52-.689.95-1.047 1.29-.841.787-1.79 1.235-2.847 1.342-1.324 0-2.479-.143-3.464-.43-.967-.268-1.799-.653-2.497-1.154a6.687 6.687 0 01-1.692-1.719 9.5 9.5 0 01-1.021-2.202 13.645 13.645 0 01-.483-2.498 26.037 26.037 0 01-.135-2.658c0-1.666.054-3.357.162-5.076l.349-5.64-2.605.054v-.994z" fill="#E8BB49"/></svg>